<svg xmlns="http://www.w3.org/2000/svg" viewBox="0 0 48 48" width="48px" height="48px">
  <path fill="#37474f" d="M32.841,28.137c0.001-0.017,0.004-0.034,0.004-0.051c0-1.282-0.695-2.432-1.741-3.076c-0.402-0.246-0.842-0.422-1.299-0.525c-0.456-0.103-0.925-0.133-1.389-0.089c-0.464,0.044-0.918,0.156-1.347,0.332c-0.429,0.176-0.828,0.414-1.183,0.707c-0.355,0.293-0.662,0.637-0.91,1.02c-0.248,0.383-0.434,0.801-0.551,1.241c-0.117,0.44-0.163,0.897-0.137,1.352c0.026,0.455,0.124,0.903,0.29,1.33c0.166,0.427,0.398,0.828,0.688,1.189c0.29,0.361,0.635,0.678,1.022,0.939c0.387,0.261,0.812,0.463,1.259,0.598c0.447,0.135,0.911,0.201,1.376,0.196c0.465-0.005,0.927-0.081,1.371-0.226c0.444-0.145,0.866-0.358,1.252-0.633c0.386-0.275,0.732-0.609,1.025-0.991c0.293-0.382,0.53-0.808,0.701-1.264c0.171-0.456,0.274-0.937,0.304-1.424C32.841,28.137,32.841,28.137,32.841,28.137z"/>
  <path fill="#37474f" d="M30.098,15.885c-0.001-0.017-0.004-0.034-0.004-0.051c0-1.282-0.695-2.432-1.741-3.076c-0.402-0.246-0.842-0.422-1.299-0.525c-0.456-0.103-0.925-0.133-1.389-0.089c-0.464,0.044-0.918,0.156-1.347,0.332c-0.429,0.176-0.828,0.414-1.183,0.707c-0.355,0.293-0.662,0.637-0.91,1.02c-0.248,0.383-0.434,0.801-0.551,1.241c-0.117,0.44-0.163,0.897-0.137,1.352c0.026,0.455,0.124,0.903,0.29,1.33c0.166,0.427,0.398,0.828,0.688,1.189c0.29,0.361,0.635,0.678,1.022,0.939c0.387,0.261,0.812,0.463,1.259,0.598c0.447,0.135,0.911,0.201,1.376,0.196c0.465-0.005,0.927-0.081,1.371-0.226c0.444-0.145,0.866-0.358,1.252-0.633c0.386-0.275,0.732-0.609,1.025-0.991c0.293-0.382,0.53-0.808,0.701-1.264c0.171-0.456,0.274-0.937,0.304-1.424C30.098,15.885,30.098,15.885,30.098,15.885z"/>
  <path fill="#37474f" d="M28.5,12.5c-1.5,0-3-1.5-3-3s1.5-3,3-3s3,1.5,3,3S30,12.5,28.5,12.5z"/>
</svg>
