<svg xmlns="http://www.w3.org/2000/svg" viewBox="0 0 48 48" width="48px" height="48px">
  <path fill="#ff6d00" d="M24,4C12.954,4,4,12.954,4,24s8.954,20,20,20s20-8.954,20-20S35.046,4,24,4z"/>
  <path fill="#fff" d="M24,8c-8.837,0-16,7.163-16,16s7.163,16,16,16s16-7.163,16-16S32.837,8,24,8z M24,36c-6.627,0-12-5.373-12-12s5.373-12,12-12s12,5.373,12,12S30.627,36,24,36z"/>
  <path fill="#ff6d00" d="M24,12c-6.627,0-12,5.373-12,12s5.373,12,12,12s12-5.373,12-12S30.627,36,24,36z M24,32c-4.418,0-8-3.582-8-8s3.582-8,8-8s8,3.582,8,8S28.418,32,24,32z"/>
</svg>
